<?xml version="1.0" encoding="UTF-8"?>
<svg xmlns="http://www.w3.org/2000/svg" version="1.1" viewBox="0 0 437.57 211.56">
  <defs>
    <style>
      .cls-1 {
        fill: #3c3c3b;
      }

      .cls-1, .cls-2, .cls-3, .cls-4, .cls-5 {
        stroke-width: 0px;
      }

      .cls-2 {
        fill: #1bacb4;
      }

      .cls-3 {
        fill: #19adb4;
      }

      .cls-4 {
        fill: #213a8f;
      }

      .cls-6 {
        display: none;
      }

      .cls-5 {
        fill: #c6c6c6;
      }
    </style>
  </defs>
  <g id="texte" class="cls-6">
    <path class="cls-3" d="M96.2,37.62c-.67.08-1.35.13-2.04.13-9.23,0-16.71-7.48-16.71-16.71s7.48-16.71,16.71-16.71c.69,0,1.37.05,2.04.13v-13.98c-.67-.04-1.35-.08-2.04-.08-16.92,0-30.64,13.72-30.64,30.64s13.72,30.64,30.64,30.64c.69,0,1.37-.03,2.04-.08v-13.98Z"/>
    <path class="cls-4" d="M140.48-9.61c-16.92,0-30.64,13.72-30.64,30.64s13.72,30.64,30.64,30.64,30.64-13.72,30.64-30.64-13.72-30.64-30.64-30.64ZM140.48,38.03c-9.39,0-17-7.61-17-17s7.61-17,17-17,17,7.61,17,17-7.61,17-17,17Z"/>
    <g>
      <path class="cls-1" d="M198.07,5.58c0-1.71.3-3.31.91-4.79.6-1.48,1.44-2.75,2.51-3.81s2.36-1.89,3.88-2.49c1.52-.6,3.16-.9,4.92-.9,3.18,0,6.02.99,8.52,2.98l-2.75,3.48c-1.81-1.45-3.7-2.17-5.66-2.17-2.18,0-3.93.7-5.24,2.1s-1.97,3.27-1.97,5.6.65,4.35,1.95,5.8c1.3,1.44,3.06,2.17,5.26,2.17s4.13-.81,5.79-2.44l3.01,3.22c-2.53,2.34-5.56,3.52-9.08,3.52-1.77,0-3.4-.31-4.9-.92s-2.77-1.46-3.82-2.54c-1.05-1.08-1.86-2.38-2.45-3.89-.59-1.52-.88-3.16-.88-4.92Z"/>
      <path class="cls-1" d="M220.7,8.32c0-1.86.41-3.51,1.22-4.94s1.9-2.51,3.25-3.25c1.36-.74,2.87-1.11,4.54-1.11,2.52,0,4.48.75,5.89,2.25,1.41,1.5,2.11,3.48,2.11,5.94,0,.85-.05,1.58-.16,2.18h-11.86c.26,3.04,1.73,4.56,4.42,4.56,1.67,0,3.33-.51,4.99-1.54l2.04,3.11c-2.26,1.57-4.72,2.35-7.39,2.35s-4.89-.85-6.55-2.55c-1.66-1.7-2.49-4.03-2.49-7ZM229.85,2.57c-1.03,0-1.9.35-2.62,1.04s-1.2,1.68-1.43,2.97h7.26c0-1.22-.26-2.19-.77-2.92s-1.32-1.09-2.44-1.09ZM227.26-2.39l4.29-6.23,3.29,2.18-4.48,4.06h-3.09Z"/>
      <path class="cls-1" d="M239.5,19.74c0-1.55.87-2.79,2.62-3.71-.74-.68-1.11-1.48-1.11-2.4,0-1.24.64-2.24,1.91-2.99-1.75-1.23-2.62-2.91-2.62-5.02,0-1.95.74-3.53,2.21-4.74s3.33-1.82,5.56-1.82c1.98,0,3.69.51,5.12,1.54,1.33-1.02,3.02-1.54,5.07-1.54v3.24c-1.33,0-2.4.11-3.22.34.49.89.74,1.89.74,2.98,0,1.02-.21,1.96-.65,2.8-.43.84-1.01,1.53-1.73,2.07-.73.54-1.55.96-2.46,1.25s-1.87.44-2.86.44c-.93,0-1.84-.12-2.75-.36-.47.2-.7.53-.7,1,0,.44.35.75,1.05.95.7.2,1.98.33,3.84.39,2.73.1,4.78.55,6.17,1.36,1.38.81,2.08,2.04,2.08,3.71s-.76,2.97-2.29,3.88-3.82,1.37-6.88,1.37c-2.89,0-5.12-.4-6.71-1.19-1.58-.8-2.37-1.97-2.37-3.53ZM248.9,18.04c-1.3-.03-2.49-.19-3.58-.47-.83.49-1.24,1.15-1.24,1.98,0,.64.34,1.12,1.03,1.42.69.31,1.8.46,3.34.46,1.63,0,2.84-.14,3.61-.41.77-.27,1.16-.7,1.16-1.28s-.3-1.02-.9-1.25-1.74-.38-3.42-.45ZM248.06,8.93c.93,0,1.67-.3,2.23-.91.56-.6.84-1.41.84-2.41s-.28-1.81-.84-2.43c-.56-.62-1.31-.92-2.23-.92s-1.66.31-2.22.92c-.57.62-.85,1.43-.85,2.43s.28,1.81.85,2.41c.57.6,1.31.91,2.22.91Z"/>
      <path class="cls-1" d="M259.25,8.32c0-1.86.41-3.51,1.22-4.94s1.9-2.51,3.25-3.25c1.36-.74,2.87-1.11,4.54-1.11,2.52,0,4.48.75,5.89,2.25,1.41,1.5,2.11,3.48,2.11,5.94,0,.85-.05,1.58-.16,2.18h-11.86c.26,3.04,1.73,4.56,4.42,4.56,1.67,0,3.33-.51,4.99-1.54l2.04,3.11c-2.26,1.57-4.72,2.35-7.39,2.35s-4.89-.85-6.55-2.55c-1.66-1.7-2.49-4.03-2.49-7ZM268.39,2.57c-1.03,0-1.9.35-2.62,1.04s-1.2,1.68-1.43,2.97h7.26c0-1.22-.26-2.19-.77-2.92s-1.32-1.09-2.44-1.09Z"/>
      <path class="cls-1" d="M284.5,15.52v8.62h-4.86V-.56h4.42l.38,2.18c1.49-1.71,3.24-2.57,5.25-2.57,2.14,0,3.83.79,5.09,2.36,1.25,1.58,1.88,3.85,1.88,6.81s-.62,5.46-1.87,7.12c-1.25,1.66-2.91,2.49-4.98,2.49s-3.75-.77-5.3-2.32ZM284.5,12.31c.58.62,1.16,1.07,1.74,1.35s1.24.42,1.97.42c1.16,0,2.04-.52,2.64-1.55.61-1.04.91-2.46.91-4.27,0-3.64-1.18-5.46-3.55-5.46-1.35,0-2.59.63-3.71,1.88v7.64Z"/>
      <path class="cls-1" d="M314.04,17.84c-2.09,0-3.77-.83-5.02-2.49-1.25-1.66-1.88-4.04-1.88-7.12s.63-5.24,1.89-6.81c1.26-1.58,2.96-2.36,5.11-2.36.97,0,1.9.21,2.79.64.89.42,1.68,1.01,2.36,1.77V-7.85h4.92v25.28h-4.35l-.29-2.11c-1.6,1.68-3.45,2.52-5.53,2.52ZM315.57,14.08c.74,0,1.41-.14,2-.42s1.16-.73,1.72-1.35v-7.64c-1.12-1.25-2.36-1.88-3.71-1.88-2.34,0-3.52,1.82-3.52,5.46,0,1.81.3,3.23.89,4.27.59,1.04,1.47,1.55,2.62,1.55Z"/>
      <path class="cls-1" d="M327.5,8.32c0-1.86.41-3.51,1.22-4.94s1.9-2.51,3.25-3.25c1.36-.74,2.87-1.11,4.54-1.11,2.52,0,4.48.75,5.89,2.25,1.41,1.5,2.11,3.48,2.11,5.94,0,.85-.05,1.58-.16,2.18h-11.86c.26,3.04,1.73,4.56,4.42,4.56,1.67,0,3.33-.51,4.99-1.54l2.04,3.11c-2.26,1.57-4.72,2.35-7.39,2.35s-4.89-.85-6.55-2.55c-1.66-1.7-2.49-4.03-2.49-7ZM336.64,2.57c-1.03,0-1.9.35-2.62,1.04s-1.2,1.68-1.43,2.97h7.26c0-1.22-.26-2.19-.77-2.92s-1.32-1.09-2.44-1.09Z"/>
      <path class="cls-1" d="M198.84,50.92v-25.28h4.92v25.28h-4.92Z"/>
      <path class="cls-1" d="M207.44,32.61v-5.13h5.1v3.92c0,1.71-.35,3.06-1.05,4.03s-1.8,1.71-3.28,2.2l-1-1.88c.8-.31,1.4-.73,1.82-1.27.41-.54.62-1.16.62-1.87h-2.21Z"/>
      <path class="cls-1" d="M214.77,39.13c0-1.73.3-3.35.91-4.84s1.44-2.77,2.5-3.83,2.35-1.89,3.85-2.49c1.5-.6,3.13-.9,4.89-.9,2.34,0,4.44.51,6.3,1.54,1.85,1.02,3.29,2.45,4.33,4.28,1.03,1.83,1.54,3.91,1.54,6.23s-.52,4.44-1.54,6.3c-1.03,1.85-2.47,3.3-4.33,4.34-1.85,1.04-3.95,1.56-6.3,1.56s-4.43-.52-6.28-1.56c-1.85-1.04-3.3-2.49-4.33-4.35-1.03-1.86-1.55-3.96-1.55-6.29ZM219.92,39.13c0,2.38.65,4.29,1.95,5.73,1.3,1.45,2.98,2.17,5.04,2.17s3.78-.72,5.08-2.17c1.3-1.44,1.96-3.35,1.96-5.73s-.65-4.22-1.96-5.65c-1.3-1.43-3-2.15-5.08-2.15s-3.76.72-5.05,2.15c-1.3,1.43-1.95,3.32-1.95,5.65Z"/>
      <path class="cls-1" d="M242.39,44.83v-11.89h4.92v11.99c0,1.81.77,2.71,2.31,2.71,1.43,0,2.74-.68,3.92-2.04v-12.66h4.92v17.99h-4.56l-.29-2.08c-.71.73-1.54,1.33-2.5,1.79-.96.46-1.96.7-2.99.7-3.82,0-5.72-2.17-5.72-6.51Z"/>
      <path class="cls-1" d="M263.85,45.46v-9.04h-2.84v-3.48h2.84v-4.48h4.92v4.48h4.92v3.48h-4.92v8.95c0,1.34.54,2.01,1.64,2.01.89,0,1.71-.27,2.45-.8l1.8,2.94c-.71.56-1.52,1-2.44,1.32-.92.33-1.85.49-2.81.49-1.89,0-3.28-.48-4.19-1.43-.91-.95-1.37-2.43-1.37-4.44Z"/>
      <path class="cls-1" d="M276.36,46.57c0-3.79,3.46-5.94,10.38-6.43v-1.59c0-1.43-.83-2.14-2.49-2.14-1.38,0-3.29.59-5.72,1.78l-1.75-3.61c2.7-1.36,5.26-2.04,7.67-2.04s4.29.55,5.45,1.64c1.16,1.1,1.73,2.61,1.73,4.55v7.49c0,.94.49,1.41,1.47,1.41v3.38c-1.7,0-2.97-.16-3.8-.47s-1.5-.89-1.99-1.74c-.79.84-1.62,1.47-2.52,1.89-.89.42-1.92.63-3.08.63-1.58,0-2.87-.44-3.87-1.32-1-.88-1.5-2.03-1.5-3.44ZM281.25,46c0,.55.19.98.57,1.32.38.33.88.5,1.5.5,1.38,0,2.52-.51,3.42-1.52v-3.45c-3.66.22-5.5,1.27-5.5,3.16Z"/>
      <path class="cls-1" d="M295.18,41.75c0-1.82.39-3.43,1.19-4.84.79-1.41,1.87-2.49,3.25-3.24,1.37-.75,2.92-1.13,4.64-1.13,1.28,0,2.46.22,3.57.66,1.1.44,2.05,1.06,2.84,1.85.8.79,1.42,1.76,1.88,2.92s.69,2.42.69,3.78c0,2.93-.82,5.26-2.46,6.99-1.64,1.73-3.81,2.59-6.52,2.59s-4.93-.86-6.59-2.59c-1.66-1.73-2.49-4.06-2.49-6.99ZM300.13,41.78c0,1.8.36,3.22,1.08,4.28s1.73,1.58,3.04,1.58,2.25-.53,2.96-1.58,1.06-2.48,1.06-4.28c0-1.66-.37-2.99-1.11-4.01-.74-1.01-1.71-1.52-2.91-1.52s-2.24.51-2.99,1.52c-.75,1.01-1.13,2.35-1.13,4.01Z"/>
      <path class="cls-1" d="M316.44,44.83v-11.89h4.92v11.99c0,1.81.77,2.71,2.31,2.71,1.43,0,2.74-.68,3.92-2.04v-12.66h4.92v17.99h-4.56l-.29-2.08c-.71.73-1.54,1.33-2.5,1.79-.96.46-1.96.7-2.99.7-3.82,0-5.72-2.17-5.72-6.51Z"/>
      <path class="cls-1" d="M335.82,46.57c0-3.79,3.46-5.94,10.38-6.43v-1.59c0-1.43-.83-2.14-2.49-2.14-1.38,0-3.29.59-5.72,1.78l-1.75-3.61c2.7-1.36,5.26-2.04,7.67-2.04s4.29.55,5.45,1.64c1.16,1.1,1.73,2.61,1.73,4.55v7.49c0,.94.49,1.41,1.47,1.41v3.38c-1.7,0-2.97-.16-3.8-.47s-1.5-.89-1.99-1.74c-.79.84-1.62,1.47-2.52,1.89-.89.42-1.92.63-3.08.63-1.58,0-2.87-.44-3.87-1.32-1-.88-1.5-2.03-1.5-3.44ZM340.71,46c0,.55.19.98.57,1.32.38.33.88.5,1.5.5,1.38,0,2.52-.51,3.42-1.52v-3.45c-3.66.22-5.5,1.27-5.5,3.16Z"/>
      <path class="cls-1" d="M355.57,30.02v-4.22h4.92v4.22h-4.92ZM355.57,50.92v-17.71h4.92v17.71h-4.92Z"/>
      <path class="cls-1" d="M363.6,49.39l1.88-3.42c1.96,1.09,3.82,1.64,5.56,1.64s2.68-.57,2.68-1.7c0-.33-.11-.61-.33-.84-.22-.23-.52-.43-.89-.59-.37-.16-.8-.3-1.29-.43s-1-.27-1.54-.41-1.07-.3-1.6-.47-1.05-.4-1.54-.69c-.49-.28-.92-.61-1.29-.98-.37-.37-.67-.84-.89-1.41-.22-.57-.33-1.22-.33-1.94,0-1.74.69-3.11,2.06-4.1,1.37-.99,3.06-1.49,5.07-1.49,2.2,0,4.44.52,6.71,1.57l-1.75,3.42c-.82-.4-1.68-.72-2.58-.94s-1.67-.34-2.31-.34c-.75,0-1.34.14-1.77.43-.42.28-.64.7-.64,1.24,0,.39.18.72.53.99.35.27.81.48,1.38.65.57.16,1.19.32,1.88.48.69.16,1.37.37,2.06.62.69.26,1.31.57,1.88.95.57.38,1.03.9,1.38,1.58.35.68.53,1.48.53,2.4,0,1.81-.68,3.22-2.03,4.23-1.35,1.01-3.12,1.51-5.31,1.51-2.63,0-5.13-.65-7.51-1.95Z"/>
    </g>
    <rect class="cls-5" x="116.81" y="65.62" width="47.35" height="13.64" transform="translate(280.97 144.88) rotate(180)"/>
  </g>
  <g id="Calque_2" data-name="Calque 2">
    <g>
      <path class="cls-2" d="M93.96,109.01c-.67.08-1.35.13-2.04.13-9.23,0-16.71-7.48-16.71-16.71s7.48-16.71,16.71-16.71c.69,0,1.37.05,2.04.13v-13.98c-.67-.04-1.35-.08-2.04-.08-16.92,0-30.64,13.72-30.64,30.64s13.72,30.64,30.64,30.64c.69,0,1.37-.03,2.04-.08v-13.98Z"/>
      <path class="cls-4" d="M138.25,61.78c-16.92,0-30.64,13.72-30.64,30.64s13.72,30.64,30.64,30.64,30.64-13.72,30.64-30.64-13.72-30.64-30.64-30.64ZM138.25,109.42c-9.39,0-17-7.61-17-17s7.61-17,17-17,17,7.61,17,17-7.61,17-17,17Z"/>
      <g>
        <path class="cls-1" d="M208.06,64.98c3.25,0,6.06,1.04,8.51,2.98l-2.75,3.48c-1.64-1.31-3.38-2.18-5.66-2.18-4.35,0-7.2,3.05-7.2,7.7s2.78,7.97,7.2,7.97c2.34,0,4.22-.9,5.79-2.44l3.01,3.22c-2.51,2.34-5.43,3.52-9.08,3.52-7.17,0-12.06-5.12-12.06-12.26s5.06-11.99,12.23-11.99Z"/>
        <path class="cls-1" d="M227.49,70.4c5.16,0,8,3.38,8,8.21,0,.7-.07,1.64-.17,2.18h-11.86c.27,3.05,1.71,4.56,4.42,4.56,1.81,0,3.48-.6,4.99-1.54l2.04,3.11c-2.21,1.54-4.72,2.34-7.4,2.34-5.29,0-9.04-3.52-9.04-9.55s4.02-9.31,9.01-9.31ZM223.57,77.97h7.27c0-2.28-.87-4.02-3.22-4.02-2.01,0-3.58,1.41-4.05,4.02ZM229.33,62.77l3.28,2.18-4.49,4.05h-3.08l4.29-6.23Z"/>
        <path class="cls-1" d="M239.88,87.42c-.77-.7-1.11-1.54-1.11-2.41,0-1.31.77-2.31,1.91-2.98-1.57-1.1-2.61-2.81-2.61-5.02,0-3.95,3.35-6.56,7.77-6.56,2.01,0,3.78.57,5.12,1.54,1.21-.94,2.71-1.54,5.06-1.54v3.25c-1.24,0-2.28.07-3.21.33.47.87.74,1.88.74,2.98,0,4.22-3.79,6.56-7.7,6.56-.94,0-1.88-.13-2.75-.37-.47.2-.7.57-.7,1,0,.87,1.11,1.21,4.89,1.34,5.29.2,8.24,1.64,8.24,5.06s-2.91,5.26-9.18,5.26c-5.69,0-9.08-1.57-9.08-4.72,0-1.67.97-2.85,2.61-3.72ZM243.09,88.96c-.8.47-1.24,1.14-1.24,1.98,0,1.27,1.24,1.88,4.35,1.88,3.28,0,4.79-.54,4.79-1.67,0-1.21-.97-1.57-4.32-1.71-1.41-.03-2.58-.2-3.58-.47ZM248.92,77c0-2.01-1.24-3.35-3.08-3.35s-3.08,1.34-3.08,3.35,1.27,3.32,3.08,3.32,3.08-1.31,3.08-3.32Z"/>
        <path class="cls-1" d="M266.04,70.4c5.16,0,8,3.38,8,8.21,0,.7-.07,1.64-.17,2.18h-11.86c.27,3.05,1.71,4.56,4.42,4.56,1.81,0,3.48-.6,4.99-1.54l2.04,3.11c-2.21,1.54-4.72,2.34-7.4,2.34-5.29,0-9.04-3.52-9.04-9.55s4.02-9.31,9.01-9.31ZM262.12,77.97h7.27c0-2.28-.87-4.02-3.22-4.02-2.01,0-3.58,1.41-4.05,4.02Z"/>
        <path class="cls-1" d="M282.28,95.52h-4.86v-24.68h4.42l.37,2.18c1.37-1.57,3.18-2.58,5.26-2.58,4.15,0,6.97,3.11,6.97,9.18s-2.85,9.61-6.87,9.61c-2.24,0-3.95-.97-5.29-2.31v8.61ZM286,85.48c2.38,0,3.55-2.31,3.55-5.83s-1.17-5.46-3.55-5.46c-1.44,0-2.65.67-3.72,1.88v7.64c1.14,1.24,2.24,1.78,3.72,1.78Z"/>
        <path class="cls-1" d="M304.92,79.61c0-6.06,2.81-9.18,7-9.18,1.98,0,3.82.94,5.16,2.41v-9.31h4.92v25.29h-4.35l-.3-2.11c-1.41,1.47-3.15,2.51-5.53,2.51-4.05,0-6.9-3.28-6.9-9.61ZM317.08,83.7v-7.64c-1.07-1.21-2.28-1.88-3.72-1.88-2.38,0-3.52,1.91-3.52,5.46s1.14,5.83,3.52,5.83c1.47,0,2.61-.54,3.72-1.78Z"/>
        <path class="cls-1" d="M334.29,70.4c5.16,0,8,3.38,8,8.21,0,.7-.07,1.64-.17,2.18h-11.86c.27,3.05,1.71,4.56,4.42,4.56,1.81,0,3.48-.6,4.99-1.54l2.04,3.11c-2.21,1.54-4.72,2.34-7.4,2.34-5.29,0-9.04-3.52-9.04-9.55s4.02-9.31,9.01-9.31ZM330.37,77.97h7.27c0-2.28-.87-4.02-3.22-4.02-2.01,0-3.58,1.41-4.05,4.02Z"/>
        <path class="cls-1" d="M196.6,97.03h4.92v25.29h-4.92v-25.29Z"/>
        <path class="cls-1" d="M205.21,98.87h5.09v3.92c0,3.48-1.41,5.26-4.32,6.23l-1-1.88c1.61-.6,2.44-1.74,2.44-3.15h-2.21v-5.12Z"/>
        <path class="cls-1" d="M224.7,98.47c7.13,0,12.16,5.02,12.16,12.06s-5.02,12.19-12.16,12.19-12.16-5.09-12.16-12.19,5.06-12.06,12.16-12.06ZM224.7,118.43c4.12,0,7.03-3.12,7.03-7.9s-2.88-7.8-7.03-7.8-7,3.11-7,7.8,2.91,7.9,7,7.9Z"/>
        <path class="cls-1" d="M240.18,104.33h4.92v11.99c0,1.61.57,2.71,2.31,2.71,1.54,0,2.81-.77,3.92-2.04v-12.66h4.92v17.99h-4.56l-.3-2.08c-1.31,1.34-3.28,2.48-5.49,2.48-4.05,0-5.73-2.45-5.73-6.5v-11.89Z"/>
        <path class="cls-1" d="M261.65,107.81h-2.85v-3.48h2.85v-4.49h4.92v4.49h4.92v3.48h-4.92v8.94c0,1.34.5,2.01,1.64,2.01.9,0,1.74-.3,2.45-.8l1.81,2.95c-1.37,1.07-3.28,1.81-5.26,1.81-3.75,0-5.56-1.84-5.56-5.86v-9.04Z"/>
        <path class="cls-1" d="M284.56,111.53v-1.57c0-1.34-.77-2.14-2.48-2.14s-3.52.7-5.73,1.77l-1.74-3.62c2.41-1.21,5.23-2.04,7.67-2.04,5.16,0,7.17,2.51,7.17,6.2v7.5c0,.97.57,1.41,1.47,1.41v3.38c-3.38,0-4.79-.5-5.79-2.21-1.51,1.61-3.18,2.51-5.59,2.51-3.15,0-5.36-1.91-5.36-4.76,0-3.92,3.72-5.96,10.38-6.43ZM281.14,119.2c1.51,0,2.65-.64,3.42-1.51v-3.45c-2.78.17-5.49.87-5.49,3.15,0,1.07.84,1.81,2.08,1.81Z"/>
        <path class="cls-1" d="M302.07,103.93c5.12,0,8.98,3.65,8.98,9.21,0,5.93-3.62,9.58-8.98,9.58s-9.08-3.65-9.08-9.58c0-5.56,3.88-9.21,9.08-9.21ZM302.07,119.03c2.55,0,4.02-2.31,4.02-5.86,0-3.32-1.61-5.53-4.02-5.53s-4.12,2.21-4.12,5.53c0,3.55,1.47,5.86,4.12,5.86Z"/>
        <path class="cls-1" d="M314.26,104.33h4.92v11.99c0,1.61.57,2.71,2.31,2.71,1.54,0,2.81-.77,3.92-2.04v-12.66h4.92v17.99h-4.56l-.3-2.08c-1.31,1.34-3.28,2.48-5.49,2.48-4.05,0-5.73-2.45-5.73-6.5v-11.89Z"/>
        <path class="cls-1" d="M344.04,111.53v-1.57c0-1.34-.77-2.14-2.48-2.14s-3.52.7-5.73,1.77l-1.74-3.62c2.41-1.21,5.23-2.04,7.67-2.04,5.16,0,7.17,2.51,7.17,6.2v7.5c0,.97.57,1.41,1.47,1.41v3.38c-3.38,0-4.79-.5-5.79-2.21-1.51,1.61-3.18,2.51-5.59,2.51-3.15,0-5.36-1.91-5.36-4.76,0-3.92,3.72-5.96,10.38-6.43ZM340.62,119.2c1.51,0,2.65-.64,3.42-1.51v-3.45c-2.78.17-5.49.87-5.49,3.15,0,1.07.84,1.81,2.08,1.81Z"/>
        <path class="cls-1" d="M353.42,97.2h4.92v4.22h-4.92v-4.22ZM353.42,104.6h4.92v17.72h-4.92v-17.72Z"/>
        <path class="cls-1" d="M363.33,117.36c1.74.97,3.68,1.64,5.56,1.64,1.67,0,2.68-.54,2.68-1.71,0-3.05-9.71-1.04-9.71-7.77,0-3.65,3.32-5.59,7.13-5.59,1.98,0,4.15.4,6.7,1.57l-1.74,3.42c-1.71-.84-3.68-1.27-4.89-1.27-1.47,0-2.41.57-2.41,1.67,0,2.98,9.65.87,9.65,7.67,0,3.72-3.08,5.73-7.33,5.73-2.75,0-5.23-.7-7.5-1.94l1.88-3.42Z"/>
      </g>
      <rect class="cls-5" x="114.57" y="137.01" width="47.35" height="13.64" transform="translate(276.5 287.66) rotate(180)"/>
    </g>
  </g>
</svg>